<svg xmlns="http://www.w3.org/2000/svg" viewBox="0 0 500 500"><g id="freepik--background-complete--inject-18"><rect x="167.01" y="378.75" width="104.15" height="80.33" style="fill:#ebebeb"></rect><path d="M245.07,458.52c-.14,0-.26-17.91-.26-40s.12-40,.26-40,.26,17.91.26,40S245.21,458.52,245.07,458.52Z" style="fill:#e0e0e0"></path><rect x="254.35" y="440.8" width="7.98" height="9.03" style="fill:#fafafa"></rect><rect x="198.79" y="378.96" width="11.83" height="17.14" style="fill:#e0e0e0"></rect><rect x="198.79" y="441.7" width="11.83" height="17.14" style="fill:#e0e0e0"></rect><rect x="328.82" y="358.61" width="131.33" height="101.29" style="fill:#ebebeb"></rect><path d="M427.24,459.18c-.14,0-.26-22.57-.26-50.42s.12-50.42.26-50.42.26,22.57.26,50.42S427.39,459.18,427.24,459.18Z" style="fill:#e0e0e0"></path><rect x="438.94" y="436.84" width="10.07" height="11.38" style="fill:#fafafa"></rect><rect x="368.88" y="358.87" width="14.92" height="21.61" style="fill:#e0e0e0"></rect><rect x="368.88" y="437.98" width="14.92" height="21.61" style="fill:#e0e0e0"></rect><path d="M81.46,361.59c5.32-2.74,11.58-3.1,17.48-2.12,3.17.52,6.47,1.47,8.63,3.85s2.56,6.57.09,8.62c-1.48,1.22-3.53,1.4-5.45,1.38-4.62-.06-9.74-.87-13.43,1.91-2.11,1.59-3.51,4.22-6,5s-5.24-.69-6.54-2.91a10.15,10.15,0,0,1-.74-7.51A11.45,11.45,0,0,1,81.46,361.59Z" style="fill:#ebebeb"></path><path d="M69.28,338.08c3.25,4.64,9.57,3.11,12.5.27s4.17-6.94,5.29-10.85c2.58-8.95,5.17-18.34,3.26-27.45a15.19,15.19,0,0,0-3.51-7.46,8,8,0,0,0-7.54-2.51c-3.19.84-5.17,4-6.6,6.93a65.29,65.29,0,0,0-6.46,28.07c0,4.53.51,9.27,3.06,13" style="fill:#ebebeb"></path><path d="M60.36,344.74c3.53-4.19,4.2-10.29,2.63-15.54s-5.12-9.71-9.21-13.36a49.6,49.6,0,0,0-16.48-9.72,17.58,17.58,0,0,0-7.42-1.26,7.77,7.77,0,0,0-6.22,3.76c-1.74,3.31-.07,7.32,1.73,10.6a125.87,125.87,0,0,0,10.82,16.49c3.25,4.18,7,8.31,11.91,10.2s10.09,1.67,12.71-1.76" style="fill:#ebebeb"></path><path d="M69.06,408.1a10.07,10.07,0,0,0,.3-2.1c.15-1.54.33-3.47.56-5.76a84,84,0,0,1,1.29-8.44,64.62,64.62,0,0,1,3.07-10,37,37,0,0,1,5.09-9,19.22,19.22,0,0,1,6.43-5.35,18.1,18.1,0,0,1,5.42-1.68,9.88,9.88,0,0,0,2.1-.31,9.72,9.72,0,0,0-2.13,0,16.37,16.37,0,0,0-5.65,1.47,18.94,18.94,0,0,0-6.79,5.4,35.67,35.67,0,0,0-5.28,9.19,61.15,61.15,0,0,0-3,10.13,73.35,73.35,0,0,0-1.13,8.55c-.18,2.45-.25,4.43-.28,5.8A10,10,0,0,0,69.06,408.1Z" style="fill:#e0e0e0"></path><path d="M69.46,403.68a4.25,4.25,0,0,0,.06-1c0-.74,0-1.67,0-2.8,0-2.43,0-5.95.12-10.29.22-8.68,1-18,2.41-31.19,1.37-12.39,3.2-26.8,5.14-36.17.41-2.13.83-4.05,1.23-5.73s.69-3.14,1-4.31.48-2,.66-2.72a4.1,4.1,0,0,0,.17-1,4,4,0,0,0-.34.92c-.22.71-.49,1.59-.82,2.68s-.73,2.61-1.15,4.28-.9,3.59-1.35,5.72a317,317,0,0,0-5.41,33.56c-1.44,13.2-2.09,25.22-2.15,33.92,0,4.35,0,7.88.15,10.31.07,1.13.13,2.06.17,2.79A4.31,4.31,0,0,0,69.46,403.68Z" style="fill:#e0e0e0"></path><path d="M69.52,380.5a18.8,18.8,0,0,0,0-2.93c-.11-1.88-.37-4.59-.9-7.92A104.22,104.22,0,0,0,66,358.11a95.33,95.33,0,0,0-4.83-13.66A72.62,72.62,0,0,0,47,322.39a35.08,35.08,0,0,0-3.34-3.1c-.51-.44-1-.87-1.42-1.21L41,317.19a17.72,17.72,0,0,0-2.47-1.58c-.14.19,3.49,2.33,8.07,7.2a76.6,76.6,0,0,1,13.82,22,106.14,106.14,0,0,1,4.85,13.53A117.56,117.56,0,0,1,68,369.76c.6,3.29,1,6,1.16,7.84A18.36,18.36,0,0,0,69.52,380.5Z" style="fill:#e0e0e0"></path><polygon points="45.56 417.86 47.88 449.69 88.77 449.69 91.09 417.86 45.56 417.86" style="fill:#ebebeb"></polygon><rect x="41.61" y="405.32" width="54.35" height="12.54" style="fill:#ebebeb"></rect><polygon points="41.61 448.47 41.61 451.94 44.17 451.94 95.07 451.94 95.07 448.47 41.61 448.47" style="fill:#e0e0e0"></polygon><polygon points="46.67 457.68 44.17 451.56 93.12 451.56 90.2 457.68 46.67 457.68" style="fill:#e0e0e0"></polygon><path d="M90.33,428.26a1.48,1.48,0,0,1-.19.3c-.16.21-.37.48-.61.81l-2.38,3-.11.14-.1-.14-5.85-8.09h.33l-5.76,8.15-.18.26-.2-.24-6.83-8.13h.39l-.37.48-6.11,7.65-.21.26-.18-.27-5.77-8.15.34,0-7.1,8.08-.12.15-.1-.17L47,428.67c-.24-.4-.42-.73-.57-1a1.55,1.55,0,0,1-.18-.36,1.54,1.54,0,0,1,.24.32l.63.95,2.33,3.67-.22,0,7-8.18.17-.21.16.22,5.82,8.12H62l6.09-7.67c.13-.16.26-.32.37-.47l.2-.25.2.24,6.81,8.15h-.38l5.82-8.11.17-.24.16.24c2.31,3.29,4.27,6.08,5.73,8.18h-.21l2.48-3c.27-.31.49-.56.66-.77A2.27,2.27,0,0,1,90.33,428.26Z" style="fill:#f5f5f5"></path><path d="M91.66,417.65c0,.14-10.25.26-22.88.26s-22.88-.12-22.88-.26,10.24-.25,22.88-.25S91.66,417.51,91.66,417.65Z" style="fill:#f5f5f5"></path><rect x="370.15" y="56.84" width="8.38" height="41.7" transform="translate(-0.41 2.01) rotate(-0.31)" style="fill:#e0e0e0"></rect><rect x="297.5" y="56.99" width="21.7" height="23.02" transform="translate(-0.36 1.65) rotate(-0.31)" style="fill:#ebebeb"></rect><rect x="319.1" y="56.87" width="21.7" height="23.02" transform="translate(-0.36 1.77) rotate(-0.31)" style="fill:#f5f5f5"></rect><path d="M297.47,63.4q21.64.18,43.3-.2a.23.23,0,0,0,0-.46c-14.42-.08-28.88,0-43.3.27a.2.2,0,0,0,0,.39Z" style="fill:#e0e0e0"></path><rect x="283.96" y="79.67" width="39.43" height="18.76" transform="translate(-0.47 1.63) rotate(-0.31)" style="fill:#ebebeb"></rect><rect x="323.2" y="79.46" width="39.43" height="18.76" transform="translate(-0.47 1.84) rotate(-0.31)" style="fill:#f5f5f5"></rect><path d="M283.94,85c26.19.29,52.47,0,78.67-.39a.23.23,0,0,0,0-.46c-26.19-.14-52.48-.13-78.67.45a.2.2,0,0,0,0,.4Z" style="fill:#e0e0e0"></path><rect x="269.19" y="98.54" width="152.76" height="6.72" style="fill:#e0e0e0"></rect><rect x="294.2" y="101.77" width="6.2" height="22.93" style="fill:#e0e0e0"></rect><rect x="386.77" y="101.77" width="6.2" height="22.93" style="fill:#e0e0e0"></rect><rect x="378.37" y="41.29" width="8.38" height="57.35" transform="translate(-0.37 2.05) rotate(-0.31)" style="fill:#ebebeb"></rect><rect x="386.79" y="51.98" width="13.02" height="46.48" transform="translate(-0.4 2.11) rotate(-0.31)" style="fill:#f5f5f5"></rect><path d="M399.6,60.9a92.25,92.25,0,0,1-13,0,96.43,96.43,0,0,1,13,0Z" style="fill:#e0e0e0"></path><path d="M399.6,59a48.59,48.59,0,0,1-6.51.22,48.72,48.72,0,0,1-6.51-.22,92.25,92.25,0,0,1,13,0Z" style="fill:#e0e0e0"></path><path d="M399.6,91.43a92.25,92.25,0,0,1-13,0,96.43,96.43,0,0,1,13,0Z" style="fill:#e0e0e0"></path><path d="M399.6,89.48a96.43,96.43,0,0,1-13,0,92.25,92.25,0,0,1,13,0Z" style="fill:#e0e0e0"></path><path d="M393.3,85.22c-.12,0-.22-4.69-.22-10.47s.1-10.48.22-10.48.23,4.69.23,10.48S393.43,85.22,393.3,85.22Z" style="fill:#e0e0e0"></path><rect x="399.75" y="63.36" width="14.17" height="35.08" style="fill:#ebebeb"></rect><circle cx="382.28" cy="51.06" r="2.41" style="fill:#e0e0e0"></circle><rect x="381.54" y="57.69" width="1.49" height="34.12" style="fill:#e0e0e0"></rect></g><g id="freepik--Floor--inject-18"><path d="M464.66,459.35c0,.15-96.12.26-214.65.26s-214.67-.11-214.67-.26,96.1-.26,214.67-.26S464.66,459.21,464.66,459.35Z" style="fill:#263238"></path></g><g id="freepik--Plant--inject-18"><path d="M433.77,433.18a2.35,2.35,0,0,1,.18-.42c.14-.3.33-.7.56-1.21a29.54,29.54,0,0,0,1.67-4.84c1.1-4.3,1.49-10.87-.14-18.67a100.91,100.91,0,0,0-3.47-12.55c-1.46-4.45-3.17-9.17-4.56-14.28a55.38,55.38,0,0,1-2.25-16.42c.21-5.81,1.93-11.6,3.82-17.38S433.42,336,434,330.3a26.11,26.11,0,0,0-3.14-15.8c-2.5-4.61-5.65-8.56-8-12.64a44,44,0,0,1-4.81-12.16,45.33,45.33,0,0,1-.31-18.82,34.68,34.68,0,0,1,2-6.65,2.57,2.57,0,0,1-.12.44l-.4,1.27c-.34,1.12-.79,2.8-1.22,5a46,46,0,0,0,.49,18.69,43.51,43.51,0,0,0,4.83,12c2.35,4,5.51,8,8.07,12.63a26.64,26.64,0,0,1,3.23,16.13c-.59,5.78-2.55,11.47-4.44,17.24s-3.59,11.5-3.8,17.21a54.63,54.63,0,0,0,2.2,16.26c1.37,5.08,3.05,9.8,4.5,14.27a98.25,98.25,0,0,1,3.4,12.62c1.59,7.86,1.14,14.5,0,18.81a27.84,27.84,0,0,1-1.79,4.83l-.62,1.19A2.06,2.06,0,0,1,433.77,433.18Z" style="fill:#263238"></path><path d="M426.06,305.89s-4.78-15.31,3.8-24.27a.53.53,0,0,1,.91.26C431.23,284.41,431.8,292.11,426.06,305.89Z" style="fill:#C53F3F"></path><path d="M428.93,286.72a14.65,14.65,0,0,1-.32,2.82c-.32,1.95-.69,4.23-1.09,6.75s-.77,4.81-1.08,6.75a16.84,16.84,0,0,1-.5,2.8A11.86,11.86,0,0,1,426,303c.16-1.75.47-4.15.9-6.79s.9-5,1.27-6.73A12.4,12.4,0,0,1,428.93,286.72Z" style="fill:#263238"></path><path d="M431.68,342s2.93-15.77,14.71-19.67a.53.53,0,0,1,.68.66C446.29,325.42,443.2,332.49,431.68,342Z" style="fill:#C53F3F"></path><path d="M443.18,326.38a14.81,14.81,0,0,1-1.6,2.35l-4.13,5.45-4.1,5.47a16,16,0,0,1-1.75,2.23,11.84,11.84,0,0,1,1.4-2.48c1-1.47,2.36-3.45,4-5.58s3.13-4,4.26-5.36A12.88,12.88,0,0,1,443.18,326.38Z" style="fill:#263238"></path><path d="M428.5,381.53s-1.78-15.94,8.36-23.09a.52.52,0,0,1,.84.43C437.67,361.44,436.76,369.1,428.5,381.53Z" style="fill:#C53F3F"></path><path d="M435,363.26a13.32,13.32,0,0,1-.85,2.71l-2.36,6.42c-.88,2.4-1.67,4.57-2.34,6.42a16.44,16.44,0,0,1-1,2.65,11.68,11.68,0,0,1,.62-2.78c.49-1.68,1.25-4,2.18-6.5s1.84-4.75,2.53-6.36A13.93,13.93,0,0,1,435,363.26Z" style="fill:#263238"></path><path d="M437.37,421.31s-1.2-16,9.18-22.78a.53.53,0,0,1,.83.46C447.26,401.56,446.08,409.19,437.37,421.31Z" style="fill:#C53F3F"></path><path d="M444.49,403.29a13.85,13.85,0,0,1-.95,2.68c-.74,1.82-1.62,4-2.59,6.33s-1.82,4.5-2.56,6.33a15.56,15.56,0,0,1-1.13,2.61,12,12,0,0,1,.73-2.76c.55-1.66,1.39-3.94,2.41-6.41s2-4.69,2.75-6.27A13.36,13.36,0,0,1,444.49,403.29Z" style="fill:#263238"></path><path d="M419.18,292.44S405,285,404.69,272.61a.54.54,0,0,1,.83-.46C407.63,273.61,413.49,278.65,419.18,292.44Z" style="fill:#C53F3F"></path><path d="M407.64,276.87a13.75,13.75,0,0,1,1.77,2.23c1.16,1.59,2.51,3.47,4,5.54l4,5.52a15.67,15.67,0,0,1,1.62,2.33,11.76,11.76,0,0,1-1.95-2.07c-1.13-1.34-2.61-3.26-4.17-5.43s-2.93-4.18-3.87-5.65A13.66,13.66,0,0,1,407.64,276.87Z" style="fill:#263238"></path><path d="M434.45,325.31s-14.64-6.55-15.67-18.92a.53.53,0,0,1,.8-.5C421.77,307.22,427.92,311.88,434.45,325.31Z" style="fill:#C53F3F"></path><path d="M422,310.47a13.57,13.57,0,0,1,1.9,2.11l4.34,5.29,4.35,5.27a16,16,0,0,1,1.76,2.23,12.18,12.18,0,0,1-2.08-1.95c-1.2-1.28-2.8-3.1-4.49-5.17s-3.17-4-4.21-5.41A12.85,12.85,0,0,1,422,310.47Z" style="fill:#263238"></path><path d="M426,362s-10-12.5-5.33-24a.53.53,0,0,1,.94-.08C423,340.09,426.33,347.05,426,362Z" style="fill:#C53F3F"></path><path d="M421.68,343.08a13.63,13.63,0,0,1,.74,2.75c.42,1.92.91,4.18,1.45,6.68s1.05,4.75,1.47,6.67a15.67,15.67,0,0,1,.55,2.79,12,12,0,0,1-1-2.68c-.49-1.69-1.09-4-1.65-6.66s-1-5-1.28-6.72A13,13,0,0,1,421.68,343.08Z" style="fill:#263238"></path><path d="M436,405.11s-14.53-6.79-15.35-19.17a.53.53,0,0,1,.81-.5C423.61,386.81,429.68,391.58,436,405.11Z" style="fill:#C53F3F"></path><path d="M423.77,390.06a14.89,14.89,0,0,1,1.86,2.15l4.25,5.35,4.26,5.35a15.68,15.68,0,0,1,1.72,2.26,11.78,11.78,0,0,1-2-2c-1.19-1.3-2.75-3.15-4.41-5.25s-3.1-4.05-4.12-5.48A12.23,12.23,0,0,1,423.77,390.06Z" style="fill:#263238"></path><path d="M464.91,342.07s0,.12,0,.35,0,.61,0,1c0,1-.1,2.27-.17,3.89-.18,3.42-.45,8.19-.76,13.89h0v0c-1,5.8-4,12.23-8,18.48-2.91,4.6-6,8.78-8.6,12.67A89.36,89.36,0,0,0,441,403.05a44.9,44.9,0,0,0-3,7.82c-.25.95-.45,1.7-.56,2.21a4.65,4.65,0,0,1-.21.78,3.63,3.63,0,0,1,.1-.8c.07-.52.22-1.28.45-2.25a40.87,40.87,0,0,1,2.85-7.95A85.88,85.88,0,0,1,447,392.09c2.62-3.92,5.65-8.11,8.55-12.68,3.95-6.22,6.89-12.55,8-18.26v0c.4-5.69.73-10.45,1-13.87.13-1.62.24-2.91.32-3.88,0-.4.07-.74.1-1A1.32,1.32,0,0,1,464.91,342.07Z" style="fill:#263238"></path><path d="M456.26,378.53s6.15-14.8-1.58-24.51a.53.53,0,0,0-.93.18C453.06,356.68,451.79,364.29,456.26,378.53Z" style="fill:#C53F3F"></path><path d="M455.14,359.19a13,13,0,0,1,.49,2.8c.22,1.74.46,4.15.65,6.82s.28,5.09.28,6.85a11.6,11.6,0,0,1-.17,2.84,15,15,0,0,1-.25-2.83c-.13-2-.29-4.27-.46-6.82s-.33-4.86-.47-6.82A14.46,14.46,0,0,1,455.14,359.19Z" style="fill:#263238"></path><g style="opacity:0.30000000000000004"><path d="M456.26,378.53s6.15-14.8-1.58-24.51a.53.53,0,0,0-.93.18C453.06,356.68,451.79,364.29,456.26,378.53Z"></path></g><path d="M437.21,414.22s4.93-15.26-3.57-24.3a.53.53,0,0,0-.91.25C432.25,392.69,431.6,400.39,437.21,414.22Z" style="fill:#C53F3F"></path><path d="M434.52,395a12.27,12.27,0,0,1,.72,2.76c.36,1.71.79,4.1,1.2,6.74s.69,5.05.84,6.8a12,12,0,0,1,.05,2.85,17.08,17.08,0,0,1-.48-2.8c-.29-1.95-.63-4.23-1-6.76s-.73-4.81-1-6.76A14.48,14.48,0,0,1,434.52,395Z" style="fill:#263238"></path><g style="opacity:0.30000000000000004"><path d="M437.21,414.22s4.93-15.26-3.57-24.3a.53.53,0,0,0-.91.25C432.25,392.69,431.6,400.39,437.21,414.22Z"></path></g><path d="M464.1,360.44s13.13-9.2,11.81-21.54a.53.53,0,0,0-.88-.34C473.12,340.28,468,346,464.1,360.44Z" style="fill:#C53F3F"></path><g style="opacity:0.30000000000000004"><path d="M464.1,360.44s13.13-9.2,11.81-21.54a.53.53,0,0,0-.88-.34C473.12,340.28,468,346,464.1,360.44Z"></path></g><path d="M473.53,343.51a12.33,12.33,0,0,1-1.09,2.63c-.75,1.58-1.84,3.74-3.11,6.1s-2.49,4.45-3.43,5.93a11.86,11.86,0,0,1-1.67,2.3,14.73,14.73,0,0,1,1.3-2.52c.94-1.73,2.05-3.75,3.27-6l3.26-6A14.61,14.61,0,0,1,473.53,343.51Z" style="fill:#263238"></path><path d="M442.51,399.09s15.84-2.47,20.08-14.13a.53.53,0,0,0-.63-.7C459.49,385,452.33,387.85,442.51,399.09Z" style="fill:#C53F3F"></path><g style="opacity:0.30000000000000004"><path d="M442.51,399.09s15.84-2.47,20.08-14.13a.53.53,0,0,0-.63-.7C459.49,385,452.33,387.85,442.51,399.09Z"></path></g><path d="M458.43,388.05a12.84,12.84,0,0,1-2.14,1.87c-1.37,1.1-3.3,2.56-5.47,4.12s-4.2,2.89-5.7,3.81a11.57,11.57,0,0,1-2.52,1.33,15.44,15.44,0,0,1,2.29-1.69l5.58-3.94,5.57-4A13.29,13.29,0,0,1,458.43,388.05Z" style="fill:#263238"></path><polygon points="427.39 428.25 422.77 459.35 451.57 459.35 447.84 428.25 427.39 428.25" style="fill:#455a64"></polygon><path d="M449,437.88c0,.17-5.2.3-11.61.3s-11.62-.13-11.62-.3a114.71,114.71,0,0,1,11.62-.3A114.58,114.58,0,0,1,449,437.88Z" style="fill:#263238"></path><path d="M449.56,440.36c0,.17-5.37.3-12,.3s-12-.13-12-.3,5.37-.3,12-.3S449.56,440.19,449.56,440.36Z" style="fill:#263238"></path></g><g id="freepik--Boxes--inject-18"><path d="M337.57,126.54s-.27,0-.79,0a19.23,19.23,0,0,0-2.28,0,25.62,25.62,0,0,0-8.53,2,26.19,26.19,0,0,0-10.82,8.43,23.63,23.63,0,0,0-3.78,7.73A26,26,0,0,0,314,164.34a22.22,22.22,0,0,0,3.4,4.52,18.48,18.48,0,0,0,4.6,3.6,11.3,11.3,0,0,0,5.77,1.45,8.29,8.29,0,0,0,5.59-2.26,8.07,8.07,0,0,0,2.23-5.76,10.62,10.62,0,0,0-2-6.13c-2.59-3.65-6.79-6.1-11.26-7.42a27.65,27.65,0,0,0-14.2-.2,29.76,29.76,0,0,0-6.84,2.72,24.65,24.65,0,0,0-5.87,4.61c-.41.47-.88.9-1.25,1.42l-1.13,1.52a28.55,28.55,0,0,0-1.84,3.34,27.1,27.1,0,0,0-2.17,7.37,27.94,27.94,0,0,0,2,15,23.17,23.17,0,0,0,9.65,11,16,16,0,0,0,6.84,2.07,12.08,12.08,0,0,0,6.75-1.62,10.55,10.55,0,0,0,4.56-5A9.06,9.06,0,0,0,319,188a13.23,13.23,0,0,0-3.76-5.32,17.22,17.22,0,0,0-5.53-3.21,21.43,21.43,0,0,0-12.18-.21,23.73,23.73,0,0,0-10,5.57,22.84,22.84,0,0,0-5.73,8.87,25.7,25.7,0,0,0,.27,18,27.29,27.29,0,0,0,8.23,11,29.61,29.61,0,0,0,7.57,4.41c.94.35,1.67.61,2.17.75l.74.24s-.26-.05-.76-.19a21.51,21.51,0,0,1-2.18-.71,28.33,28.33,0,0,1-7.66-4.34,27.41,27.41,0,0,1-8.39-11.05,26,26,0,0,1-.33-18.19,22.93,22.93,0,0,1,5.79-9,24.19,24.19,0,0,1,10.15-5.7,21.89,21.89,0,0,1,12.44.2,17.52,17.52,0,0,1,5.69,3.29,13.58,13.58,0,0,1,3.9,5.51,9.58,9.58,0,0,1-.1,6.89,11.2,11.2,0,0,1-4.77,5.21,12.62,12.62,0,0,1-7,1.7,16.26,16.26,0,0,1-7-2.14,23.64,23.64,0,0,1-9.89-11.19,28.5,28.5,0,0,1-2.06-15.28,27.86,27.86,0,0,1,2.22-7.52,28.94,28.94,0,0,1,1.88-3.41l1.16-1.55c.37-.53.85-1,1.27-1.46a25.33,25.33,0,0,1,6-4.7,30.13,30.13,0,0,1,7-2.76,28.14,28.14,0,0,1,14.47.21c4.56,1.36,8.83,3.85,11.52,7.63a11,11,0,0,1,2.1,6.4,8.54,8.54,0,0,1-2.37,6.09,8.75,8.75,0,0,1-5.9,2.37,11.63,11.63,0,0,1-6-1.51,18.59,18.59,0,0,1-4.7-3.69,23,23,0,0,1-3.45-4.61,26.37,26.37,0,0,1-2.64-20,23.9,23.9,0,0,1,3.87-7.81,26.32,26.32,0,0,1,11-8.45,25,25,0,0,1,8.59-1.88,17.47,17.47,0,0,1,2.3,0Z" style="fill:#263238"></path><rect x="230.75" y="226.6" width="140.21" height="108.14" style="fill:#C53F3F"></rect><polygon points="230.75 226.6 256.65 250.76 394.48 250.76 370.96 226.6 230.75 226.6" style="fill:#C53F3F"></polygon><path d="M230.75,226.6,371,226.35h.11l.08.07,23.28,23.91.24.25.43.44h-.62l-137.83-.11h-.06l0,0L230.75,226.6l26,24-.11,0,137.83-.1-.18.44-.25-.25-23.27-23.91.18.08Z" style="fill:#263238"></path><path d="M272.87,276.47a2.9,2.9,0,1,0,.21,0" style="fill:#263238"></path><path d="M306,276.47a2.89,2.89,0,1,0,.22,0" style="fill:#263238"></path><path d="M306.19,302.35a20.72,20.72,0,0,0-2.78-6.21,18.25,18.25,0,0,0-5.3-5.08,16.17,16.17,0,0,0-17.13-.47,18.47,18.47,0,0,0-5.57,4.78,20.5,20.5,0,0,0-3.11,6.06,2.07,2.07,0,0,1,.08-.48,11.17,11.17,0,0,1,.37-1.33,16,16,0,0,1,2.37-4.47,18.19,18.19,0,0,1,5.63-5,16.45,16.45,0,0,1,17.62.48,18.14,18.14,0,0,1,5.34,5.28,16,16,0,0,1,2.13,4.6,11.74,11.74,0,0,1,.29,1.35A2.78,2.78,0,0,1,306.19,302.35Z" style="fill:#263238"></path><polygon points="231.07 227.79 255.87 259.23 370.96 259.23 370.96 250.76 256.65 250.76 231.07 227.79" style="opacity:0.5"></polygon><path d="M343.31,334.5c-.14,0-.26-18.81-.26-42s.12-42,.26-42,.27,18.8.27,42S343.46,334.5,343.31,334.5Z" style="fill:#263238"></path><rect x="352.97" y="309.98" width="12.36" height="13.97" style="fill:#f5f5f5"></rect><polygon points="230.75 226.6 201.97 250.76 230.75 250.76 230.75 226.6" style="fill:#C53F3F"></polygon><g style="opacity:0.4"><polygon points="230.75 226.6 201.97 250.76 230.75 250.76 230.75 226.6"></polygon></g><rect x="213.89" y="334.74" width="161.21" height="124.34" style="fill:#C53F3F"></rect><rect x="213.89" y="334.74" width="161.21" height="124.34" style="opacity:0.30000000000000004"></rect><path d="M334.71,458.2c-.14,0-.26-27.71-.26-61.89s.12-61.9.26-61.9.26,27.71.26,61.9S334.85,458.2,334.71,458.2Z" style="fill:#263238"></path><rect x="349.07" y="430.78" width="12.36" height="13.97" style="fill:#f5f5f5"></rect><rect x="263.07" y="335.07" width="18.31" height="26.53" style="fill:#263238"></rect><rect x="263.07" y="432.18" width="18.31" height="26.53" style="fill:#263238"></rect><path d="M373.7,334.74l-.42,0-1.21,0-4.65.05-17.13.08L293.8,335l-56.51-.07-17.12-.08-4.65-.05-1.22,0-.41,0,.41,0,1.22,0,4.65-.05,17.12-.08,56.51-.08,56.49.08,17.13.08,4.65.05,1.21,0Z" style="fill:#263238"></path></g></svg>
