<svg xmlns="http://www.w3.org/2000/svg" viewBox="0 0 750 500"><g id="freepik--background-simple--inject-21"><path d="M684,429.4s27-49,26-129-49-155-108-176-111,6-181,9-111-85-211-43-100,127-83,168,49,61,14,90-69,47-79,58a42.92,42.92,0,0,0-11,23Z" style="fill:#E11D48"></path><path d="M684,429.4s27-49,26-129-49-155-108-176-111,6-181,9-111-85-211-43-100,127-83,168,49,61,14,90-69,47-79,58a42.92,42.92,0,0,0-11,23Z" style="fill:#fff;opacity:0.7000000000000001"></path></g><g id="freepik--Coins--inject-21"><g style="opacity:0.2"><path d="M244,76.5A24.48,24.48,0,1,0,268.5,101,24.5,24.5,0,0,0,244,76.5Zm2.49,39.43v2.36h-4.15v-2.36c-3.65-.73-5.49-3.55-5.49-7.93v-2.21h4.8v2.53c0,2.31,1,3.14,2.63,3.14s2.63-.83,2.63-3.14c0-6.64-9.92-7-9.92-16.19,0-4.34,1.8-7.1,5.35-7.89v-2.4h4.15v2.4c3.6.74,5.44,3.51,5.44,7.89v1h-4.79V91.81c0-2.31-.93-3.19-2.54-3.19s-2.54.88-2.54,3.19c0,6.64,9.92,7,9.92,16.19C252,112.38,250.11,115.2,246.51,115.93Z" style="fill:none;stroke:#000;stroke-linecap:round;stroke-linejoin:round"></path><path d="M244,66.67a34.31,34.31,0,1,0,34.3,34.3A34.3,34.3,0,0,0,244,66.67Zm0,62.48A28.18,28.18,0,1,1,272.2,101,28.21,28.21,0,0,1,244,129.15Z" style="fill:none;stroke:#000;stroke-linecap:round;stroke-linejoin:round"></path></g><g style="opacity:0.2"><path d="M447.9,80.94a17.91,17.91,0,1,0,17.91,17.91A17.93,17.93,0,0,0,447.9,80.94Zm1.82,28.86v1.72h-3V109.8c-2.67-.54-4-2.6-4-5.81v-1.62h3.51v1.86c0,1.69.75,2.29,1.93,2.29s1.92-.6,1.92-2.29c0-4.86-7.26-5.1-7.26-11.85,0-3.17,1.32-5.2,3.92-5.77V84.85h3v1.76c2.63.54,4,2.56,4,5.77v.74h-3.51v-1c0-1.68-.67-2.33-1.86-2.33s-1.85.65-1.85,2.33c0,4.86,7.26,5.1,7.26,11.85C453.74,107.2,452.35,109.26,449.72,109.8Z" style="fill:none;stroke:#000;stroke-linecap:round;stroke-linejoin:round"></path><path d="M447.9,73.75A25.1,25.1,0,1,0,473,98.85,25.1,25.1,0,0,0,447.9,73.75Zm0,45.72a20.62,20.62,0,1,1,20.62-20.62A20.64,20.64,0,0,1,447.9,119.47Z" style="fill:none;stroke:#000;stroke-linecap:round;stroke-linejoin:round"></path></g><g style="opacity:0.2"><path d="M73.88,239.71a17.91,17.91,0,1,0,17.91,17.91A17.93,17.93,0,0,0,73.88,239.71Zm1.82,28.86v1.72h-3v-1.72c-2.67-.54-4-2.6-4-5.81v-1.62h3.51V263c0,1.69.74,2.3,1.93,2.3S76,264.69,76,263c0-4.86-7.26-5.1-7.26-11.85,0-3.17,1.32-5.2,3.92-5.77v-1.76h3v1.76c2.63.54,4,2.56,4,5.77v.74H76.17v-1c0-1.68-.68-2.32-1.86-2.32s-1.85.64-1.85,2.32c0,4.87,7.25,5.1,7.25,11.85C79.71,266,78.33,268,75.7,268.57Z" style="fill:none;stroke:#000;stroke-linecap:round;stroke-linejoin:round"></path><path d="M73.88,232.52A25.1,25.1,0,1,0,99,257.62,25.11,25.11,0,0,0,73.88,232.52Zm0,45.72A20.62,20.62,0,1,1,94.5,257.62,20.64,20.64,0,0,1,73.88,278.24Z" style="fill:none;stroke:#000;stroke-linecap:round;stroke-linejoin:round"></path></g><g style="opacity:0.2"><path d="M683.42,219.8a17.91,17.91,0,1,0,17.91,17.91A17.93,17.93,0,0,0,683.42,219.8Zm1.82,28.86v1.72h-3v-1.72c-2.66-.54-4-2.6-4-5.81v-1.62h3.51v1.86c0,1.68.74,2.29,1.92,2.29s1.92-.61,1.92-2.29c0-4.87-7.25-5.1-7.25-11.85,0-3.18,1.31-5.2,3.91-5.78v-1.75h3v1.75c2.63.54,4,2.57,4,5.78V232h-3.51v-1c0-1.69-.67-2.33-1.85-2.33S682,229.31,682,231c0,4.86,7.26,5.1,7.26,11.85C689.26,246.06,687.87,248.12,685.24,248.66Z" style="fill:none;stroke:#000;stroke-linecap:round;stroke-linejoin:round"></path><path d="M683.42,212.61a25.1,25.1,0,1,0,25.1,25.1A25.1,25.1,0,0,0,683.42,212.61Zm0,45.72A20.62,20.62,0,1,1,704,237.71,20.64,20.64,0,0,1,683.42,258.33Z" style="fill:none;stroke:#000;stroke-linecap:round;stroke-linejoin:round"></path></g></g><g id="freepik--Floor--inject-21"><line x1="33" y1="429.91" x2="699" y2="429.91" style="fill:none;stroke:#263238;stroke-linecap:round;stroke-linejoin:round"></line></g><g id="freepik--Plants--inject-21"><path d="M72.69,342c3,1.29,10.19,1.12,10.2,1.12s-1.56-4.73-1.7-5c-1.58-3.32-6.6-8.8-10.69-8.25a4.88,4.88,0,0,0-3.91,6.11C67.27,338.74,70.17,340.84,72.69,342Z" style="fill:#E11D48"></path><path d="M75.19,362.9c3.06.44,9.52-1.43,10-1.58a86,86,0,0,0,3.92,10.83c.88,2.06,1.84,4.1,2.83,6.14-.59-.86-1.12-1.63-1.21-1.73-2.41-2.78-8.69-6.75-12.49-5.13a4.87,4.87,0,0,0-2.16,6.92c1.4,2.55,4.76,3.81,7.48,4.21s8.29-1.08,9.75-1.5l1.16,2.34c1.87,3.72,3.75,7.42,5.48,11.12.61,1.3,1.17,2.6,1.73,3.9-.53-.76-1-1.4-1-1.49-2.41-2.79-8.7-6.75-12.49-5.14A4.88,4.88,0,0,0,86,398.72c1.4,2.55,4.75,3.81,7.47,4.21s7.76-.95,9.5-1.43c.53,1.35,1.06,2.71,1.52,4,.29.92.63,1.78.87,2.72s.52,1.83.77,2.74c.42,1.76.87,3.57,1.24,5.3.26,1.2.49,2.35.73,3.5-.59-1.3-1.81-3.82-1.94-4-2-3.12-7.57-8-11.56-7a4.88,4.88,0,0,0-3.19,6.52c1,2.73,4.13,4.49,6.75,5.29,2.9.89,9.3.08,10.1,0,.39,1.92.74,3.78,1,5.55.23,1.31.44,2.56.63,3.77h2.57c-.24-1.35-.51-2.75-.8-4.22-.38-1.95-.83-4-1.31-6.14a53.39,53.39,0,0,0,5.64-2.65c2.11,2.29,7.51,5,8.21,5.3-.73,1.81-1.47,3.56-2.19,5.2-.37.87-.74,1.69-1.11,2.51h2.72l.64-1.56c.76-1.83,1.53-3.81,2.3-5.84.77.16,7.12,1.45,10.07.78,2.68-.6,5.93-2.12,7.13-4.77a4.89,4.89,0,0,0-2.69-6.74c-3.91-1.31-9.87,3.12-12,6.08-.13.18-1.32,2.23-2.05,3.54.31-.84.62-1.64.93-2.5.63-1.7,1.2-3.42,1.82-5.26.27-.9.54-1.81.82-2.72s.48-1.9.73-2.86c.53-2.23,1-4.52,1.34-6.83,1.49.54,6.81,2.39,9.56,2.2s6.18-1.2,7.77-3.64a4.87,4.87,0,0,0-1.64-7.07c-3.66-1.89-10.23,1.6-12.83,4.19-.17.16-1.83,2.24-2.72,3.39.22-1.39.44-2.78.62-4.19.51-4.09.89-8.24,1.3-12.38.12-1.27.26-2.53.39-3.79.53.19,6.8,2.53,9.89,2.31,2.74-.19,6.18-1.2,7.76-3.64a4.86,4.86,0,0,0-1.64-7.06c-3.66-1.89-10.22,1.59-12.83,4.18-.2.2-2.59,3.19-3.16,4,.3-2.78.62-5.55,1-8.27a84.89,84.89,0,0,1,2.38-10.88c.24.09,6.78,2.56,9.94,2.34,2.74-.2,6.18-1.2,7.77-3.64a4.88,4.88,0,0,0-1.64-7.07c-3.67-1.89-10.23,1.59-12.84,4.19-.2.2-2.77,3.42-3.19,4,.06-.21.1-.43.16-.63a62.65,62.65,0,0,1,4.31-10.3c.94-1.83,1.94-3.53,3-5.17,1.17.59,6.54,3.2,9.41,3.31s6.27-.51,8.12-2.76a4.88,4.88,0,0,0-.85-7.21c-3.44-2.28-10.34.46-13.22,2.76-.16.12-1.61,1.57-2.65,2.63.47-.73.93-1.49,1.39-2.18,1.73-2.59,3.47-4.87,5-6.86.9-1.13,1.73-2.14,2.51-3.07,1.45,0,7.28-.2,9.83-1.4s5.33-3.34,5.94-6.19a4.88,4.88,0,0,0-4.08-6c-4.1-.45-9,5.17-10.46,8.53-.13.29-1.64,5.07-1.56,5.07h.09c-.78.89-1.6,1.84-2.48,2.9-1.6,2-3.39,4.21-5.18,6.77a89.23,89.23,0,0,0-5.37,8.56,63.39,63.39,0,0,0-4.59,10.34.65.65,0,0,1,0,.13c0-1.21,0-4.59-.06-4.85-.48-3.64-3.53-10.42-7.59-11.17a4.87,4.87,0,0,0-5.62,4.59c-.24,2.9,1.86,5.8,3.91,7.63,2.31,2.07,8.73,4.07,9.24,4.22a88,88,0,0,0-2.71,11.2c-.39,2.2-.72,4.44-1,6.68,0-1.05,0-2-.05-2.11-.48-3.65-3.54-10.42-7.59-11.17a4.87,4.87,0,0,0-5.62,4.59c-.24,2.89,1.86,5.8,3.91,7.63s7.52,3.67,9,4.13c-.1.86-.22,1.72-.32,2.58-.5,4.14-1,8.27-1.56,12.3-.21,1.43-.46,2.82-.72,4.21,0-.92,0-1.71,0-1.82-.47-3.65-3.53-10.43-7.58-11.18a4.88,4.88,0,0,0-5.62,4.59c-.24,2.9,1.86,5.8,3.91,7.63s7,3.5,8.7,4.05c-.3,1.42-.6,2.85-1,4.21-.27.92-.46,1.83-.77,2.75s-.59,1.81-.88,2.71c-.62,1.7-1.24,3.46-1.89,5.1-.44,1.15-.88,2.24-1.32,3.33.22-1.41.6-4.19.61-4.43a19.12,19.12,0,0,0-2.54-9.21,5.6,5.6,0,0,0-.07-1.08,4.87,4.87,0,0,0-6-4.13c-4,1.06-6.51,8-6.7,11.72,0,.22.13,2.58.24,4.08-.2-.87-.38-1.71-.6-2.6-.42-1.76-.88-3.51-1.38-5.39-.27-.9-.55-1.81-.83-2.72s-.64-1.85-1-2.79c-.79-2.15-1.69-4.3-2.65-6.44,1.55-.37,7-1.76,9.19-3.44s4.49-4.41,4.47-7.32a4.87,4.87,0,0,0-5.26-5c-4.1.45-7.66,7-8.4,10.58,0,.22-.29,2.87-.39,4.32-.59-1.28-1.17-2.56-1.8-3.84-1.83-3.69-3.8-7.36-5.75-11-.59-1.12-1.18-2.25-1.76-3.38.55-.12,7.07-1.64,9.52-3.52,2.18-1.67,4.49-4.41,4.47-7.32a4.87,4.87,0,0,0-5.26-5c-4.1.44-7.66,7-8.4,10.57-.06.28-.4,4.08-.44,5.06-1.29-2.49-2.55-5-3.7-7.48a86.27,86.27,0,0,1-4-10.38c.26-.06,7.07-1.61,9.58-3.54,2.18-1.67,4.49-4.41,4.47-7.32a4.87,4.87,0,0,0-5.27-5c-4.09.44-7.65,7-8.39,10.57-.06.29-.43,4.38-.44,5.13-.06-.2-.15-.41-.21-.62a62.79,62.79,0,0,1-2.09-11c-.23-2.05-.33-4-.39-5.94,1.3-.16,7.22-.94,9.67-2.43s4.95-3.89,5.25-6.78a4.86,4.86,0,0,0-4.68-5.54c-4.12,0-8.37,6.08-9.51,9.58-.06.2-.47,2.2-.75,3.66,0-.86-.05-1.76,0-2.59,0-3.11.2-6,.39-8.49.13-1.44.26-2.73.41-3.94,1.19-.82,6-4.19,7.42-6.59s2.6-5.73,1.53-8.44a4.87,4.87,0,0,0-6.71-2.76c-3.66,1.89-4.62,9.26-4,12.89.06.32,1.44,5.13,1.5,5.09l.07,0c-.16,1.16-.32,2.41-.46,3.77-.25,2.53-.51,5.39-.59,8.51a87.56,87.56,0,0,0,.24,10.11,63.23,63.23,0,0,0,1.88,11.15l0,.13c-.65-1-2.56-3.81-2.73-4-2.41-2.79-8.69-6.75-12.49-5.14a4.88,4.88,0,0,0-2.16,6.93C69.11,361.24,72.47,362.5,75.19,362.9Z" style="fill:#E11D48"></path><path d="M145.85,343.54c.06,0,1.31-4.81,1.36-5.13.51-3.64-.66-11-4.37-12.77a4.87,4.87,0,0,0-6.63,2.94c-1,2.73.26,6.08,1.76,8.39C139.72,339.68,145.84,343.53,145.85,343.54Z" style="fill:#E11D48"></path><path d="M573,311.89c4,1.73,13.67,1.51,13.68,1.51s-2.09-6.35-2.27-6.73c-2.13-4.46-8.86-11.81-14.34-11.07a6.53,6.53,0,0,0-5.25,8.2C565.73,307.59,569.62,310.41,573,311.89Z" style="fill:#E11D48"></path><path d="M576.35,340c4.11.6,12.77-1.91,13.46-2.12a116.07,116.07,0,0,0,5.26,14.54c1.19,2.76,2.47,5.5,3.8,8.23-.79-1.16-1.51-2.19-1.62-2.32-3.24-3.73-11.67-9.05-16.76-6.89a6.55,6.55,0,0,0-2.9,9.3c1.88,3.42,6.38,5.11,10,5.64s11.13-1.45,13.09-2c.52,1.05,1,2.09,1.55,3.13,2.5,5,5,10,7.35,14.92.83,1.75,1.57,3.5,2.32,5.24-.7-1-1.3-1.88-1.41-2-3.23-3.74-11.66-9.05-16.75-6.89a6.53,6.53,0,0,0-2.9,9.29c1.88,3.42,6.38,5.11,10,5.65s10.4-1.27,12.73-1.91c.72,1.81,1.44,3.62,2,5.41.39,1.23.85,2.39,1.17,3.65s.69,2.46,1,3.68c.56,2.36,1.16,4.79,1.66,7.11.35,1.61.66,3.15,1,4.7-.8-1.75-2.43-5.13-2.6-5.4-2.62-4.18-10.16-10.71-15.51-9.35a6.55,6.55,0,0,0-4.28,8.75c1.34,3.67,5.53,6,9.06,7.1,3.88,1.19,12.48.1,13.55,0,.52,2.57,1,5.07,1.41,7.44.3,1.75.59,3.44.85,5.06h3.44c-.33-1.8-.68-3.69-1.07-5.66-.52-2.61-1.12-5.39-1.76-8.24a70.26,70.26,0,0,0,7.56-3.55c2.83,3.06,10.08,6.65,11,7.1-1,2.43-2,4.78-2.93,7-.51,1.17-1,2.27-1.5,3.37h3.65c.28-.69.57-1.37.86-2.09,1-2.46,2.05-5.11,3.08-7.84,1,.22,9.55,1.95,13.52,1,3.6-.81,8-2.85,9.56-6.4a6.53,6.53,0,0,0-3.61-9c-5.24-1.77-13.24,4.19-16.17,8.16-.17.23-1.76,3-2.74,4.74.42-1.12.83-2.2,1.25-3.35.84-2.28,1.6-4.58,2.44-7.06l1.09-3.65c.39-1.22.65-2.55,1-3.83.71-3,1.29-6.06,1.8-9.17,2,.73,9.13,3.21,12.82,2.95s8.3-1.61,10.43-4.88a6.54,6.54,0,0,0-2.2-9.48c-4.92-2.54-13.72,2.13-17.22,5.62-.22.21-2.45,3-3.65,4.55.3-1.87.6-3.73.83-5.63.68-5.49,1.2-11.05,1.74-16.61.17-1.7.35-3.39.53-5.09.71.27,9.12,3.4,13.26,3.11,3.68-.26,8.3-1.61,10.43-4.88a6.55,6.55,0,0,0-2.2-9.49c-4.92-2.53-13.73,2.14-17.22,5.62-.27.27-3.47,4.27-4.24,5.33.4-3.73.83-7.45,1.4-11.1a115.79,115.79,0,0,1,3.18-14.6c.33.12,9.1,3.43,13.34,3.14,3.68-.26,8.29-1.61,10.42-4.89a6.54,6.54,0,0,0-2.2-9.48c-4.91-2.54-13.72,2.14-17.22,5.62-.27.27-3.72,4.58-4.29,5.41.09-.28.14-.57.23-.85A84,84,0,0,1,667.43,322c1.26-2.46,2.6-4.75,4-6.94,1.57.79,8.78,4.29,12.63,4.44,3.68.15,8.42-.69,10.89-3.7a6.54,6.54,0,0,0-1.14-9.67c-4.61-3.06-13.88.62-17.74,3.69-.21.17-2.15,2.11-3.55,3.54.63-1,1.25-2,1.87-2.93,2.32-3.48,4.65-6.53,6.74-9.21,1.19-1.52,2.31-2.86,3.37-4.11,1.94,0,9.76-.27,13.18-1.88s7.15-4.49,8-8.31a6.54,6.54,0,0,0-5.47-8.05c-5.5-.6-12,6.94-14,11.45-.17.39-2.18,6.8-2.08,6.79h.11c-1,1.18-2.14,2.46-3.31,3.88-2.15,2.65-4.56,5.65-7,9.1a116.87,116.87,0,0,0-7.21,11.48,84.68,84.68,0,0,0-6.15,13.86,1.21,1.21,0,0,0-.05.18c0-1.62,0-6.15-.09-6.5-.64-4.89-4.74-14-10.18-15a6.55,6.55,0,0,0-7.54,6.16c-.32,3.89,2.5,7.78,5.25,10.24,3.1,2.77,11.71,5.45,12.39,5.66a117.19,117.19,0,0,0-3.63,15c-.53,3-1,5.95-1.37,9,0-1.4,0-2.65-.07-2.82-.64-4.9-4.74-14-10.18-15a6.54,6.54,0,0,0-7.55,6.15c-.31,3.89,2.51,7.78,5.26,10.24s10.08,4.93,12,5.55c-.14,1.15-.3,2.31-.44,3.46-.66,5.55-1.3,11.09-2.09,16.5-.28,1.91-.62,3.78-1,5.65,0-1.24,0-2.29-.07-2.45-.63-4.9-4.73-14-10.17-15a6.55,6.55,0,0,0-7.55,6.16c-.32,3.89,2.51,7.78,5.26,10.24s9.37,4.68,11.67,5.43c-.4,1.9-.8,3.81-1.28,5.64-.35,1.24-.61,2.46-1,3.69s-.79,2.44-1.18,3.64c-.83,2.28-1.67,4.64-2.54,6.85-.59,1.53-1.18,3-1.77,4.46.3-1.9.81-5.62.81-5.94a25.33,25.33,0,0,0-3.4-12.36,8.71,8.71,0,0,0-.09-1.44,6.54,6.54,0,0,0-8-5.55c-5.35,1.42-8.73,10.8-9,15.73,0,.29.18,3.46.33,5.46-.27-1.16-.52-2.29-.81-3.48-.56-2.37-1.19-4.71-1.85-7.23q-.55-1.81-1.11-3.66c-.34-1.22-.86-2.48-1.29-3.73-1.06-2.89-2.27-5.77-3.55-8.64,2.07-.5,9.38-2.36,12.32-4.62s6-5.91,6-9.82a6.54,6.54,0,0,0-7.06-6.7c-5.5.6-10.27,9.36-11.27,14.19-.06.3-.39,3.85-.53,5.81-.78-1.72-1.56-3.44-2.41-5.16-2.46-4.94-5.1-9.87-7.71-14.81-.8-1.51-1.58-3-2.37-4.53.74-.17,9.49-2.2,12.78-4.73,2.92-2.24,6-5.91,6-9.82a6.54,6.54,0,0,0-7.07-6.69c-5.49.59-10.26,9.35-11.26,14.18-.08.37-.54,5.48-.59,6.78-1.73-3.33-3.43-6.67-5-10a115.11,115.11,0,0,1-5.4-13.93c.35-.08,9.48-2.16,12.85-4.74,2.93-2.25,6-5.92,6-9.82a6.53,6.53,0,0,0-7.06-6.7c-5.5.59-10.27,9.35-11.27,14.19-.07.38-.57,5.87-.59,6.87-.08-.27-.2-.55-.28-.82A84.72,84.72,0,0,1,588,322.1c-.31-2.75-.45-5.39-.53-8,1.74-.21,9.69-1.27,13-3.26s6.65-5.22,7.05-9.11a6.55,6.55,0,0,0-6.29-7.43c-5.53,0-11.23,8.17-12.75,12.87-.09.25-.64,2.94-1,4.9,0-1.16-.06-2.36,0-3.47,0-4.18.27-8,.53-11.4.17-1.92.35-3.66.55-5.28,1.6-1.1,8-5.62,10-8.84s3.49-7.7,2.05-11.33a6.54,6.54,0,0,0-9-3.7c-4.92,2.54-6.21,12.43-5.4,17.3.08.42,1.93,6.87,2,6.82l.09-.07c-.22,1.56-.43,3.24-.62,5.07-.34,3.39-.69,7.22-.79,11.42a114.43,114.43,0,0,0,.33,13.55,84.65,84.65,0,0,0,2.51,15c0,.05,0,.11,0,.17-.87-1.37-3.43-5.11-3.66-5.37-3.23-3.74-11.66-9.05-16.75-6.89a6.55,6.55,0,0,0-2.9,9.3C568.2,337.78,572.7,339.47,576.35,340Z" style="fill:#E11D48"></path><path d="M671.16,314c.08.06,1.76-6.45,1.82-6.87.68-4.89-.88-14.74-5.86-17.14a6.54,6.54,0,0,0-8.9,3.94c-1.33,3.67.36,8.17,2.36,11.26C662.93,308.85,671.15,314,671.16,314Z" style="fill:#E11D48"></path><g style="opacity:0.30000000000000004"><path d="M130.78,240.61c6.5,2.08,21.69.15,21.7.15.16,0-4.31-9.62-4.66-10.2-4.06-6.64-15.82-17.08-24.29-15-6.11,1.47-8.91,8-6.91,13.71S125.24,238.85,130.78,240.61Z" style="fill:none;stroke:#000;stroke-linecap:round;stroke-linejoin:round"></path><path d="M228.44,342.09c3.7-4,7-9.51,6.38-14.93-.67-6-6-10.68-12.17-9.36-8.53,1.83-14.59,16.34-15.37,24.09,0,.48,0,6.1.12,9.19-1.51-2.57-3-5.14-4.62-7.69-4.66-7.37-9.6-14.67-14.5-22-1.51-2.24-3-4.49-4.46-6.73.68-.23,5.7-2,10.66-4.27" style="fill:none;stroke:#000;stroke-linecap:round;stroke-linejoin:round"></path><path d="M217.81,370.84c-.72-1.68-1.62-3.38-2.41-5.09-2.13-4.36-4.49-8.68-7-13a98.88,98.88,0,0,0,14.2-6.18" style="fill:none;stroke:#000;stroke-linecap:round;stroke-linejoin:round"></path><path d="M282,292a34.4,34.4,0,0,0-5.77,5.39c-.37.45-4.74,7.26-5.77,9,0-5.92.08-11.82.38-17.63a183.72,183.72,0,0,1,2.62-23.42c.54.14,14.83,3.9,21.43,2.75,5.73-1,12.75-3.88,15.56-9.36s.86-12.23-5-14.52c-8.12-3.17-21.17,5.59-26.09,11.62-.39.47-5.09,7.8-5.85,9.19.09-.45.12-.92.21-1.37a133.5,133.5,0,0,1,6.82-22.61c1.58-4.07,3.31-7.86,5.07-11.52,2.59,1,14.48,5.3,20.53,4.91,5.81-.37,13.1-2.45,16.49-7.58s2.19-12.07-3.37-15c-7.72-4-21.66,3.22-27.21,8.68-.31.29-3,3.65-5,6.12.82-1.64,1.64-3.34,2.46-4.9,3.06-5.84,6.22-11,9.06-15.54,1.63-2.57,3.16-4.87,4.62-7,3-.37,15.27-2,20.37-5.09S334,186,334.69,179.86s-3.61-11.72-9.89-11.74c-8.72,0-17.74,12.84-20.16,20.25-.21.64-2.32,11-2.17,11l.19,0c-1.44,2-3,4.21-4.57,6.63-2.95,4.5-6.23,9.6-9.43,15.39a184.62,184.62,0,0,0-9.44,19.19,134.75,134.75,0,0,0-7.41,22.75c0,.09,0,.19,0,.28-.22-2.54-1.07-9.64-1.2-10.18-1.79-7.57-9.71-21.16-18.4-21.85-6.26-.5-11,4.85-10.83,10.88s5.19,11.8,9.9,15.21c5.32,3.84,19.26,6.64,20.37,6.87a182.25,182.25,0,0,0-3.27,24.14c-.34,4.73-.54,9.5-.69,14.29-.26-2.2-.51-4.16-.57-4.43-1.79-7.58-9.71-21.16-18.4-21.85-6.26-.5-11,4.85-10.83,10.88s5.19,11.8,9.9,15.2,16.62,6.09,19.76,6.75c0,1.83-.09,3.67-.12,5.5-.14,8.81-.24,17.61-.6,26.23-.12,3-.36,6-.58,9-.24-2-.45-3.59-.51-3.83-1.79-7.58-9.7-21.16-18.39-21.86-6.27-.49-11,4.86-10.84,10.88s5.19,11.81,9.9,15.21,15.47,5.83,19.2,6.62c-.32,3.06-.64,6.12-1.09,9.06-.35,2-.55,4-1,6s-.84,3.94-1.25,5.89c-.93,3.71-1.87,7.55-2.87,11.16-.67,2.51-1.37,4.89-2,7.28.16-3,.35-8.94.31-9.44a40.1,40.1,0,0,0-7.36-18.83,12.3,12.3,0,0,0-.38-2.25c-1.56-5.82-7.58-9.64-13.45-7.41-8.15,3.1-11.94,18.36-11.53,26.14,0,.45.84,5.4,1.4,8.51-.61-1.77-1.18-3.51-1.83-5.33-1.26-3.62-2.63-7.19-4.09-11" style="fill:none;stroke:#000;stroke-linecap:round;stroke-linejoin:round"></path><path d="M178.66,362.6a29.56,29.56,0,0,0,9.19,1.81c5.62.23,16.11-3.68,19.66-5.07,1.42,2.73,2.84,5.45,4.09,8.16.81,1.87,1.72,3.61,2.43,5.53s1.48,3.75,2.21,5.6c1.27,3.61,2.61,7.33,3.76,10.89.82,2.47,1.56,4.83,2.31,7.21-1.53-2.61-4.64-7.65-4.95-8.05-4.8-6.12-17.68-15.14-25.86-12.13-5.9,2.17-7.93,9-5.28,14.42s9.65,8.54,15.36,9.66c6.28,1.22,19.59-1.87,21.25-2.27,1.22,3.94,2.38,7.79,3.41,11.44q1.15,4.05,2.16,7.8l5.4-.56c-.81-2.78-1.67-5.68-2.61-8.71-1.23-4-2.62-8.27-4.09-12.63a112.4,112.4,0,0,0,11.28-6.81c4.94,4.35,16.89,8.79,18.44,9.36-1.15,4-2.31,7.81-3.47,11.42-.6,1.92-1.2,3.73-1.79,5.52l5.71-.59c.34-1.13.68-2.24,1-3.42,1.18-4,2.37-8.34,3.55-12.79,1.67.17,15.3,1.49,21.37-.55,5.51-1.86,12-5.77,14-11.6s-1-12.23-7.14-13.6c-8.5-1.91-20.08,8.73-24,15.44-.24.39-2.28,5-3.53,7.88.47-1.82.95-3.59,1.41-5.47.95-3.71,1.77-7.44,2.68-11.45.37-2,.75-3.93,1.12-5.92s.61-4.1.93-6.17c.63-4.81,1-9.71,1.33-14.66,3.25.81,14.84,3.54,20.6,2.54s12.74-3.88,15.55-9.35.86-12.24-5-14.53c-8.12-3.17-21.18,5.59-26.1,11.62-.31.38-3.35,5.1-5,7.73.15-3,.32-5.95.38-9,.18-8.71.08-17.53,0-26.33,0-2.7,0-5.39,0-8.08,1.16.31,14.86,3.85,21.31,2.72,5.73-1,12.74-3.87,15.55-9.35s.86-12.23-5-14.52c-3.82-1.49-8.73-.34-13.37,1.92" style="fill:none;stroke:#000;stroke-linecap:round;stroke-linejoin:round"></path><path d="M169.45,353.17a11.13,11.13,0,0,0,1.75,4A13,13,0,0,0,174,360.1" style="fill:none;stroke:#000;stroke-linecap:round;stroke-linejoin:round"></path><path d="M143,284.06c6.93-.74,17.48-5,18.42-5.41A182.24,182.24,0,0,0,172,300.59c2.32,4.14,4.78,8.23,7.3,12.3-1.43-1.69-2.71-3.19-2.92-3.38-5.67-5.33-19.77-12.29-27.4-8.08-5.5,3-6.47,10.1-3,15.06s10.84,7,16.64,7.22,17.22-4.09,20.21-5.28c1,1.55,1.94,3.11,2.93,4.66,4.75,7.42,9.52,14.81,14,22.2,1.57,2.6,3,5.22,4.49,7.84-1.27-1.49-2.35-2.74-2.54-2.92-5.67-5.33-19.77-12.29-27.4-8.08a9.62,9.62,0,0,0-4,4.19" style="fill:none;stroke:#000;stroke-linecap:round;stroke-linejoin:round"></path><path d="M182.85,222a12.78,12.78,0,0,0,.33-2.82c0-6-4.82-11.27-11.07-10.64-8.68.89-16.29,14.65-17.91,22.26-.09.41-.53,4.72-.79,7.86-.22-1.82-.48-3.69-.65-5.44-.67-6.56-.88-12.6-1-18-.06-3.05-.05-5.8,0-8.38,2.33-2,11.63-10.11,14.19-15.49s4.22-12.63,1.38-18.09-9.48-7.79-14.73-4.34c-7.29,4.78-7.71,20.5-5.64,28,.18.65,4.14,10.47,4.26,10.37l.14-.12c-.09,2.48-.15,5.15-.16,8.05,0,5.37.1,11.44.63,18a182.82,182.82,0,0,0,2.71,21.21,135.16,135.16,0,0,0,6.38,23.06c0,.09.08.18.11.26-1.58-2-6.21-7.45-6.61-7.83-5.67-5.33-19.77-12.29-27.4-8.07-5.5,3-6.47,10.09-3,15.05,2.63,3.79,7.42,5.82,12.09,6.7" style="fill:none;stroke:#000;stroke-linecap:round;stroke-linejoin:round"></path><path d="M198.24,308.52a24,24,0,0,0,4.85-3.33c4.23-4,8.5-10.26,7.82-16.38s-6-10.67-12.17-9.35c-8.53,1.83-14.59,16.34-15.36,24.08-.06.59.05,8.67.17,10.73-3.25-4.95-6.45-9.91-9.41-14.92a181.5,181.5,0,0,1-10.73-21c.52-.18,14.52-4.93,19.39-9.53,4.22-4,8.49-10.26,7.81-16.38s-6-10.68-12.17-9.36c-8.53,1.83-14.58,16.34-15.36,24.09-.06.61.06,9.31.19,10.88-.18-.41-.41-.83-.58-1.25a132.48,132.48,0,0,1-6.78-22.63c-.93-4.25-1.58-8.37-2.13-12.4,2.7-.61,15-3.57,19.83-7.23a29.88,29.88,0,0,0,6.16-6.19" style="fill:none;stroke:#000;stroke-linecap:round;stroke-linejoin:round"></path><path d="M285.08,228c.15.07,1.72-10.4,1.75-11.07.27-7.78-3.78-23-12-25.94-5.9-2.13-11.85,1.79-13.32,7.63s1.89,12.76,5.54,17.28C271.35,221.21,285.07,228,285.08,228Z" style="fill:none;stroke:#000;stroke-linecap:round;stroke-linejoin:round"></path></g><g style="opacity:0.30000000000000004"><path d="M514.4,99.8c5.43,2.19,10.87,3.71,10.88,3.71S525.05,93,525,92.3c-1.17-7.69-8-21.88-16.55-23.28-6.2-1-11.33,3.94-11.69,10s4.21,12.18,8.63,16" style="fill:none;stroke:#000;stroke-linecap:round;stroke-linejoin:round"></path><path d="M642.64,182.92a19,19,0,0,0,3.23,1.13c5.67,1.29,13.25,1.38,18-2.58s5.54-10.94,1-15.32c-6.25-6.08-21.69-3.08-28.57.57-.54.28-7.71,5.21-8.95,6.19.25-.38.47-.8.72-1.18a133.73,133.73,0,0,1,15.08-18.18c3-3.14,6.09-6,9.14-8.65,2,1.91,11.28,10.5,17,12.5,5.49,1.92,13,2.83,18.14-.58A10.69,10.69,0,0,0,692,145.2" style="fill:none;stroke:#000;stroke-linecap:round;stroke-linejoin:round"></path><path d="M561.23,58.42c2.47-3.37,4.25-7.36,3.93-11.36-.49-6-5.71-10.85-11.89-9.72-8.58,1.58-15.07,15.9-16.08,23.62-.08.66-.25,11.25-.1,11.21l.18-.06c-1,2.26-2.14,4.68-3.27,7.36-2.07,5-4.35,10.58-6.43,16.87a182.08,182.08,0,0,0-5.74,20.6,134.28,134.28,0,0,0-3.08,23.72,2.8,2.8,0,0,0,0,.29c-.68-2.47-2.83-9.28-3-9.79-3.16-7.11-13.44-19-22.11-18.08-6.25.66-9.89,6.79-8.65,12.69s7.28,10.64,12.54,13.12c5.93,2.79,20.15,3,21.28,3A184.59,184.59,0,0,0,520,166.22c.53,4.71,1.21,9.43,2,14.16-.66-2.11-1.27-4-1.38-4.24-3.16-7.12-13.45-19-22.12-18.09-6.24.67-9.88,6.8-8.64,12.69s7.28,10.65,12.54,13.12,17.45,2.92,20.66,3c.31,1.81.59,3.62.9,5.43,1.49,8.69,3,17.35,4.25,25.89.44,3,.76,6,1.09,9-.59-1.88-1.1-3.45-1.21-3.68-3.15-7.12-13.44-19-22.11-18.09-6.24.67-9.88,6.8-8.64,12.69s7.28,10.65,12.54,13.12c5.09,2.4,16.27,2.88,20.08,3,.25,3.07.5,6.13.6,9.11,0,2,.19,4,.1,6s-.1,4-.14,6c-.23,3.82-.45,7.77-.76,11.49-.21,2.6-.45,5.06-.68,7.55-.4-3-1.31-8.86-1.44-9.34-2-7.51-10.41-20.83-19.12-21.23C502.22,243.5,497.7,249,498,255s5.58,11.62,10.4,14.86c5.32,3.58,18.78,5.89,20.47,6.17-.41,4.11-.84,8.1-1.3,11.87-.34,2.78-.69,5.46-1.05,8l5.2,1.58q.51-4.3,1-9c.43-4.17.8-8.64,1.14-13.23a113.53,113.53,0,0,0,13-1.89c2.87,5.92,12.16,14.66,13.36,15.78-2.6,3.21-5.16,6.3-7.63,9.18-1.3,1.53-2.55,3-3.79,4.39l5.49,1.67,2.27-2.75c2.66-3.24,5.43-6.77,8.25-10.41,1.46.81,13.51,7.32,19.9,7.79,5.8.43,13.31-.64,17.37-5.26s3.82-11.66-1.3-15.3c-7.09-5.07-21.89.24-28.14,4.88-.37.28-4,3.7-6.31,5.9,1.14-1.5,2.27-2.94,3.42-4.49,2.31-3.05,4.53-6.17,6.92-9.52l3.33-5c1.15-1.66,2.15-3.55,3.25-5.33,2.45-4.19,4.72-8.55,6.92-13,2.68,2,12.3,9,18,10.34s13.25,1.38,18-2.58,5.54-10.94,1-15.32c-6.25-6.08-21.68-3.08-28.56.57-.43.23-5.07,3.4-7.59,5.19,1.3-2.68,2.61-5.35,3.84-8.11,3.55-8,6.89-16.12,10.25-24.25,1-2.49,2.09-5,3.14-7.44,1,.73,12.2,9.32,18.58,10.78,5.66,1.3,13.25,1.38,18-2.58s5.54-10.93,1-15.31c-6.25-6.08-21.68-3.08-28.56.56-.52.28-7.19,4.85-8.83,6.1,2.31-5.46,4.66-10.87,7.2-16.11a181.59,181.59,0,0,1,11.51-20.56,115.15,115.15,0,0,0,10.94,7.39" style="fill:none;stroke:#000;stroke-linecap:round;stroke-linejoin:round"></path><path d="M552.73,104c3.95-1.85,7.61-4.65,9.24-8.52,2.34-5.55-.07-12.26-6.07-14.1-8.34-2.56-20.7,7.16-25.15,13.55-.25.35-2.32,4.15-3.79,6.94.51-1.76,1-3.59,1.52-5.27,1.93-6.3,4.09-11.95,6-16.94,1.13-2.83,2.21-5.37,3.25-7.73,2.92-.93,14.63-4.8,19.08-8.76.44-.39.87-.8,1.3-1.23" style="fill:none;stroke:#000;stroke-linecap:round;stroke-linejoin:round"></path><path d="M689.29,140.78c-6.17-5.68-20.69-4.38-27.58-1.65-.39.16-4.22,2.19-7,3.7,1.39-1.19,2.81-2.44,4.17-3.55,5.09-4.19,10-7.72,14.38-10.81,2.51-1.73,4.81-3.25,7-4.65,2.94.84,14.85,4.07,20.75,3.22s12.85-3.49,15.83-8.88,1.22-12.2-4.56-14.66c-8-3.42-21.33,5-26.43,10.83-.44.51-6.43,9.25-6.27,9.29l.18,0c-2.12,1.31-4.37,2.73-6.79,4.34-4.46,3-9.47,6.42-14.67,10.52a183.89,183.89,0,0,0-16.15,14,134.89,134.89,0,0,0-15.66,18.09l-.15.24c.79-2.43,2.76-9.3,2.85-9.84,1.29-7.68-.73-23.27-8.47-27.29-5.57-2.89-12,.22-14.21,5.82s.2,12.89,3.22,17.86c3.41,5.6,15.17,13.6,16.1,14.24a182.24,182.24,0,0,0-12.38,21c-2.16,4.23-4.2,8.54-6.19,12.9.62-2.13,1.15-4,1.19-4.3,1.29-7.68-.72-23.27-8.46-27.29-5.58-2.89-12,.22-14.21,5.82s.2,12.89,3.22,17.86,13,12.06,15.59,13.89c-.75,1.68-1.51,3.34-2.25,5-3.55,8.07-7.06,16.13-10.74,23.94-1.29,2.75-2.67,5.41-4,8.08.54-1.89,1-3.48,1-3.73,1.29-7.68-.73-23.27-8.47-27.28-5.58-2.89-12,.21-14.21,5.81s.2,12.89,3.22,17.86c2.92,4.81,12,11.38,15.12,13.56-1.49,2.69-3,5.39-4.53,7.93-1.1,1.71-2.05,3.43-3.25,5.09L573,272.74c-2.3,3.06-4.65,6.24-7,9.17-1.6,2-3.17,4-4.73,5.92,1.32-2.73,3.8-8.11,3.95-8.59a40,40,0,0,0,.54-20.21,12.82,12.82,0,0,0,.53-2.22c.82-6-3.24-11.83-9.52-12.05-8.71-.31-18.13,12.29-20.78,19.61-.16.43-1.33,5.3-2,8.39.12-1.87.27-3.69.38-5.63.24-3.82.36-7.64.52-11.75q0-3,0-6c0-2-.16-4.14-.23-6.23-.27-4.84-.78-9.74-1.4-14.66,3.35.21,15.25.75,20.72-1.3S565.85,221,567.6,215.1s-1.41-12.18-7.58-13.35c-8.57-1.62-19.79,9.4-23.51,16.23-.24.43-2.36,5.63-3.47,8.52-.39-3-.77-5.91-1.27-8.89-1.43-8.59-3.15-17.24-4.83-25.88-.51-2.65-1-5.29-1.49-7.93,1.2.08,15.32,1,21.45-1.26,5.44-2,11.81-6.16,13.56-12.06s-1.41-12.18-7.58-13.35c-8.57-1.62-19.79,9.4-23.51,16.23-.28.52-3.33,8-4,10-1.08-5.83-2.1-11.64-2.88-17.41a182.39,182.39,0,0,1-1.74-23.5c.56,0,15.3,1.1,21.57-1.25,5.45-2,11.81-6.16,13.56-12.06s-1.41-12.18-7.58-13.35c-8.57-1.62-19.78,9.39-23.51,16.23-.29.54-3.56,8.6-4,10.11,0-.46-.05-.93-.05-1.39a133.9,133.9,0,0,1,2.54-23.48c.8-4.28,1.8-8.33,2.86-12.25,2.72.48,15.2,2.53,21.08,1,.73-.19,1.48-.4,2.23-.66" style="fill:none;stroke:#000;stroke-linecap:round;stroke-linejoin:round"></path><path d="M652.43,143.25c.11.12,5.63-8.92,5.91-9.53,3.27-7.06,5.45-22.64-1-28.55-4.61-4.26-11.62-3-15.24,1.86s-3.21,12.48-1.61,18.07C642.41,131.67,652.43,143.24,652.43,143.25Z" style="fill:none;stroke:#000;stroke-linecap:round;stroke-linejoin:round"></path></g></g><g id="freepik--Device--inject-21"><polygon points="342.84 201.5 661.18 201.5 619.98 429.9 301.64 429.9 342.84 201.5" style="fill:#fff;stroke:#263238;stroke-linecap:round;stroke-linejoin:round"></polygon><polygon points="654.81 201.5 635 311.34 616.71 412.75 613.61 429.91 295.28 429.91 326.04 259.38 336.48 201.5 654.81 201.5" style="fill:#263238;stroke:#263238;stroke-linecap:round;stroke-linejoin:round"></polygon><polygon points="345.17 208.66 643.54 208.66 604.92 422.74 306.55 422.74 345.17 208.66" style="fill:#E11D48;stroke:#263238;stroke-linecap:round;stroke-linejoin:round"></polygon><polygon points="309.57 406 306.55 422.74 604.92 422.74 607.94 406 309.57 406" style="fill:#bfbfbf;stroke:#263238;stroke-linecap:round;stroke-linejoin:round"></polygon><polygon points="634.7 208.66 596.08 422.74 604.92 422.74 643.54 208.66 634.7 208.66" style="fill:#bfbfbf;stroke:#263238;stroke-linecap:round;stroke-linejoin:round"></polygon><polygon points="629.5 286.46 637.01 244.81 628.18 244.81 620.66 286.46 629.5 286.46" style="fill:#a1a1a1;stroke:#263238;stroke-linecap:round;stroke-linejoin:round"></polygon><rect x="224.35" y="414.78" width="390.76" height="15.12" style="fill:#fff;stroke:#263238;stroke-linecap:round;stroke-linejoin:round"></rect><rect x="88.27" y="414.78" width="191.8" height="15.12" style="fill:#263238;stroke:#263238;stroke-linecap:round;stroke-linejoin:round"></rect><polygon points="342.44 223.78 640.81 223.78 643.54 208.66 345.17 208.66 342.44 223.78" style="fill:#bfbfbf;stroke:#263238;stroke-linecap:round;stroke-linejoin:round"></polygon><polygon points="361.22 219.07 503.34 219.07 504.64 211.86 362.52 211.86 361.22 219.07" style="fill:#fff;stroke:#263238;stroke-linecap:round;stroke-linejoin:round"></polygon></g></svg>